<svg xmlns="http://www.w3.org/2000/svg" width="256" height="256" viewBox="0 0 256 256" fill="none">
  <defs>
    <linearGradient id="pinkGrad" x1="64" y1="30" x2="192" y2="226" gradientUnits="userSpaceOnUse">
      <stop stop-color="#FF86B0"/>
      <stop offset="1" stop-color="#FF2F7A"/>
    </linearGradient>
    <linearGradient id="pinkSoft" x1="64" y1="28" x2="196" y2="230" gradientUnits="userSpaceOnUse">
      <stop stop-color="#FFF4F8"/>
      <stop offset="1" stop-color="#FFD3E2"/>
    </linearGradient>
    <filter id="softShadow" x="-30%" y="-30%" width="160%" height="160%">
      <feDropShadow dx="0" dy="10" stdDeviation="12" flood-color="#FF4D8D" flood-opacity="0.22"/>
    </filter>
  </defs>
  <circle cx="128" cy="128" r="106" fill="url(#pinkSoft)" filter="url(#softShadow)"/>
  <circle cx="128" cy="128" r="91" fill="url(#pinkGrad)" opacity="0.92"/>
  <path d="M56 118C70 79 111 70 139 92C164 112 186 104 203 78C201 121 166 142 132 124C98 106 77 111 56 118Z" fill="white" opacity="0.92"/>
  <path d="M207 137C193 176 152 185 124 163C99 143 77 151 60 177C63 133 97 112 131 130C165 148 186 143 207 137Z" fill="white" opacity="0.92"/>
  <circle cx="105" cy="102" r="16" fill="#FF4E89"/>
  <circle cx="157" cy="155" r="16" fill="#FF4E89"/>
  <path d="M70 65C92 48 129 43 168 57" stroke="white" stroke-width="9" stroke-linecap="round" opacity="0.75"/>
</svg>
