<svg xmlns="http://www.w3.org/2000/svg" width="256" height="256" viewBox="0 0 256 256" fill="none">
  <defs>
    <linearGradient id="pinkGrad" x1="64" y1="30" x2="192" y2="226" gradientUnits="userSpaceOnUse">
      <stop stop-color="#FF86B0"/>
      <stop offset="1" stop-color="#FF2F7A"/>
    </linearGradient>
    <linearGradient id="pinkSoft" x1="64" y1="28" x2="196" y2="230" gradientUnits="userSpaceOnUse">
      <stop stop-color="#FFF4F8"/>
      <stop offset="1" stop-color="#FFD3E2"/>
    </linearGradient>
    <linearGradient id="orangeGrad" x1="54" y1="30" x2="202" y2="226" gradientUnits="userSpaceOnUse">
      <stop stop-color="#F7C15D"/>
      <stop offset="1" stop-color="#DB8D25"/>
    </linearGradient>
    <filter id="softShadow" x="-30%" y="-30%" width="160%" height="160%">
      <feDropShadow dx="0" dy="10" stdDeviation="12" flood-color="#FF4D8D" flood-opacity="0.22"/>
    </filter>
  </defs>
  
  
  <circle cx="128" cy="128" r="112" fill="url(#pinkSoft)"/>
  <path d="M60 100C56 77 73 59 96 64L192 83C201 85 207 94 205 103L202 120C187 117 172 127 169 143C166 158 176 173 190 177L187 194C185 205 174 212 163 210L67 191C44 186 33 163 47 144C53 136 55 125 52 116L60 100Z" fill="white" stroke="url(#pinkGrad)" stroke-width="12" stroke-linejoin="round" filter="url(#softShadow)"/>
  <path d="M102 90L90 152" stroke="#FF3F82" stroke-width="9" stroke-linecap="round" stroke-dasharray="10 16"/>
  <path d="M121 118L169 128" stroke="#FF3F82" stroke-width="10" stroke-linecap="round"/>
  <path d="M116 147L151 154" stroke="#FF3F82" stroke-width="10" stroke-linecap="round" opacity="0.8"/>

</svg>