<svg xmlns="http://www.w3.org/2000/svg" width="256" height="256" viewBox="0 0 256 256" fill="none">
  <defs>
    <linearGradient id="pinkGrad" x1="64" y1="30" x2="192" y2="226" gradientUnits="userSpaceOnUse">
      <stop stop-color="#FF86B0"/>
      <stop offset="1" stop-color="#FF2F7A"/>
    </linearGradient>
    <linearGradient id="pinkSoft" x1="64" y1="28" x2="196" y2="230" gradientUnits="userSpaceOnUse">
      <stop stop-color="#FFF4F8"/>
      <stop offset="1" stop-color="#FFD3E2"/>
    </linearGradient>
    <linearGradient id="orangeGrad" x1="54" y1="30" x2="202" y2="226" gradientUnits="userSpaceOnUse">
      <stop stop-color="#F7C15D"/>
      <stop offset="1" stop-color="#DB8D25"/>
    </linearGradient>
    <filter id="softShadow" x="-30%" y="-30%" width="160%" height="160%">
      <feDropShadow dx="0" dy="10" stdDeviation="12" flood-color="#FF4D8D" flood-opacity="0.22"/>
    </filter>
  </defs>
  
  
  <circle cx="128" cy="128" r="112" fill="url(#pinkSoft)"/>
  <path d="M54 111H202V204C202 212 196 218 188 218H68C60 218 54 212 54 204V111Z" fill="url(#pinkGrad)" filter="url(#softShadow)"/>
  <rect x="43" y="82" width="170" height="42" rx="14" fill="#FF6E9F"/>
  <path d="M128 82V218" stroke="white" stroke-width="14"/>
  <path d="M43 124H213" stroke="white" stroke-width="10" opacity="0.8"/>
  <path d="M126 80C111 55 83 42 70 56C57 70 70 91 101 91H128" stroke="white" stroke-width="13" stroke-linecap="round" stroke-linejoin="round"/>
  <path d="M130 80C145 55 173 42 186 56C199 70 186 91 155 91H128" stroke="white" stroke-width="13" stroke-linecap="round" stroke-linejoin="round"/>

</svg>