<svg xmlns="http://www.w3.org/2000/svg" width="256" height="256" viewBox="0 0 256 256" fill="none">
  <defs>
    <linearGradient id="pinkGrad" x1="64" y1="30" x2="192" y2="226" gradientUnits="userSpaceOnUse">
      <stop stop-color="#FF86B0"/>
      <stop offset="1" stop-color="#FF2F7A"/>
    </linearGradient>
    <linearGradient id="pinkSoft" x1="64" y1="28" x2="196" y2="230" gradientUnits="userSpaceOnUse">
      <stop stop-color="#FFF4F8"/>
      <stop offset="1" stop-color="#FFD3E2"/>
    </linearGradient>
    <linearGradient id="orangeGrad" x1="54" y1="30" x2="202" y2="226" gradientUnits="userSpaceOnUse">
      <stop stop-color="#F7C15D"/>
      <stop offset="1" stop-color="#DB8D25"/>
    </linearGradient>
    <filter id="softShadow" x="-30%" y="-30%" width="160%" height="160%">
      <feDropShadow dx="0" dy="10" stdDeviation="12" flood-color="#FF4D8D" flood-opacity="0.22"/>
    </filter>
  </defs>
  
  
  <circle cx="128" cy="128" r="108" fill="#20C45A" filter="url(#softShadow)"/>
  <path d="M107 88C74 88 49 108 49 132C49 146 58 159 72 167L68 188L94 176C99 177 104 178 109 178C142 178 167 158 167 133C167 108 142 88 107 88Z" fill="white" opacity="0.98"/>
  <path d="M151 110C181 113 203 132 203 155C203 168 195 181 182 188L186 207L162 196C157 197 152 198 147 198C124 198 104 188 94 172C98 173 103 174 109 174C146 174 174 151 174 132C174 122 169 115 151 110Z" fill="white" opacity="0.72"/>
  <circle cx="91" cy="126" r="6" fill="#20C45A"/>
  <circle cx="124" cy="126" r="6" fill="#20C45A"/>

</svg>