<svg xmlns="http://www.w3.org/2000/svg" width="256" height="256" viewBox="0 0 256 256" fill="none">
  <defs>
    <linearGradient id="pinkGrad" x1="64" y1="30" x2="192" y2="226" gradientUnits="userSpaceOnUse">
      <stop stop-color="#FF86B0"/>
      <stop offset="1" stop-color="#FF2F7A"/>
    </linearGradient>
    <linearGradient id="pinkSoft" x1="64" y1="28" x2="196" y2="230" gradientUnits="userSpaceOnUse">
      <stop stop-color="#FFF4F8"/>
      <stop offset="1" stop-color="#FFD3E2"/>
    </linearGradient>
    <linearGradient id="orangeGrad" x1="54" y1="30" x2="202" y2="226" gradientUnits="userSpaceOnUse">
      <stop stop-color="#F7C15D"/>
      <stop offset="1" stop-color="#DB8D25"/>
    </linearGradient>
    <filter id="softShadow" x="-30%" y="-30%" width="160%" height="160%">
      <feDropShadow dx="0" dy="10" stdDeviation="12" flood-color="#FF4D8D" flood-opacity="0.22"/>
    </filter>
  </defs>
  
  
  <circle cx="128" cy="128" r="108" fill="white" filter="url(#softShadow)"/>
  <path d="M128 33L153 93H218L166 132L186 197L128 159L70 197L90 132L38 93H103L128 33Z" fill="#FF594F"/>
  <path d="M128 33L153 93H218L166 132L186 197L128 159" fill="#FFC24E" opacity="0.85"/>
  <path d="M128 159L70 197L90 132L38 93H103L128 33" fill="#30C86B" opacity="0.85"/>
  <path d="M90 132L128 159L166 132L153 93H103L90 132Z" fill="#47B7FF" opacity="0.9"/>
  <circle cx="128" cy="128" r="33" fill="white"/>

</svg>