<svg xmlns="http://www.w3.org/2000/svg" width="256" height="256" viewBox="0 0 256 256" fill="none">
  <defs>
    <linearGradient id="pinkGrad" x1="64" y1="30" x2="192" y2="226" gradientUnits="userSpaceOnUse">
      <stop stop-color="#FF86B0"/>
      <stop offset="1" stop-color="#FF2F7A"/>
    </linearGradient>
    <linearGradient id="pinkSoft" x1="64" y1="28" x2="196" y2="230" gradientUnits="userSpaceOnUse">
      <stop stop-color="#FFF4F8"/>
      <stop offset="1" stop-color="#FFD3E2"/>
    </linearGradient>
    <linearGradient id="orangeGrad" x1="54" y1="30" x2="202" y2="226" gradientUnits="userSpaceOnUse">
      <stop stop-color="#F7C15D"/>
      <stop offset="1" stop-color="#DB8D25"/>
    </linearGradient>
    <filter id="softShadow" x="-30%" y="-30%" width="160%" height="160%">
      <feDropShadow dx="0" dy="10" stdDeviation="12" flood-color="#FF4D8D" flood-opacity="0.22"/>
    </filter>
  </defs>
  
  
  <circle cx="128" cy="128" r="112" fill="url(#pinkSoft)"/>
  <path d="M86 176L177 85" stroke="url(#pinkGrad)" stroke-width="20" stroke-linecap="round" filter="url(#softShadow)"/>
  <path d="M156 64L170 93L201 98L178 121L183 152L156 137L128 152L134 121L111 98L142 93L156 64Z" fill="url(#pinkGrad)"/>
  <path d="M73 75C78 103 93 118 121 123C93 128 78 143 73 171C68 143 53 128 25 123C53 118 68 103 73 75Z" fill="#FF8AB4" opacity="0.9"/>
  <path d="M210 42C214 64 226 76 248 80C226 84 214 96 210 118C206 96 194 84 172 80C194 76 206 64 210 42Z" fill="#FFD2E1"/>

</svg>