<svg xmlns="http://www.w3.org/2000/svg" width="256" height="256" viewBox="0 0 256 256" fill="none">
  <defs>
    <linearGradient id="pinkGrad" x1="64" y1="30" x2="192" y2="226" gradientUnits="userSpaceOnUse">
      <stop stop-color="#FF86B0"/>
      <stop offset="1" stop-color="#FF2F7A"/>
    </linearGradient>
    <linearGradient id="pinkSoft" x1="64" y1="28" x2="196" y2="230" gradientUnits="userSpaceOnUse">
      <stop stop-color="#FFF4F8"/>
      <stop offset="1" stop-color="#FFD3E2"/>
    </linearGradient>
    <linearGradient id="orangeGrad" x1="54" y1="30" x2="202" y2="226" gradientUnits="userSpaceOnUse">
      <stop stop-color="#F7C15D"/>
      <stop offset="1" stop-color="#DB8D25"/>
    </linearGradient>
    <filter id="softShadow" x="-30%" y="-30%" width="160%" height="160%">
      <feDropShadow dx="0" dy="10" stdDeviation="12" flood-color="#FF4D8D" flood-opacity="0.22"/>
    </filter>
  </defs>
  
  
  <circle cx="128" cy="128" r="112" fill="url(#pinkSoft)"/>
  <path d="M127 44C76 44 42 81 42 130C42 176 78 214 125 214H141C156 214 164 198 154 187C145 177 150 162 165 162H180C200 162 216 146 216 126C216 79 178 44 127 44Z" fill="white" stroke="url(#pinkGrad)" stroke-width="11" filter="url(#softShadow)"/>
  <circle cx="88" cy="114" r="15" fill="#FF5F93"/>
  <circle cx="118" cy="86" r="15" fill="#FFD065"/>
  <circle cx="154" cy="91" r="15" fill="#62C9A0"/>
  <circle cx="174" cy="127" r="15" fill="#6CB9FF"/>

</svg>